<svg width="1535" height="747" viewBox="0 0 1535 747" fill="none" xmlns="http://www.w3.org/2000/svg">
    <g clip-path="url(#clip0_1207_123)">
        <path d="M339.244 339.22L474.431 302.996L573.357 401.96L537.139 537.107L401.952 573.325L303.031 474.399L339.244 339.22Z" fill="#FF8833"/>
        <path d="M733.584 471.487L492.917 230.82L286.224 286.216L230.849 492.936L471.516 733.589C346.537 767.475 207.516 735.626 109.409 637.553C-36.4707 491.713 -36.4706 255.247 109.409 109.38C255.249 -36.4601 491.743 -36.46 637.583 109.38C735.681 207.511 767.473 346.54 733.593 471.5L733.584 471.487Z" fill="#FF8833"/>
        <path fill-rule="evenodd" clip-rule="evenodd" d="M1534.69 0H787.691V747H1534.69V0ZM978.26 82.1818V664H1101.27V423.659H1337.92V322.239H1101.27V183.602H1363.49V82.1818H978.26Z" fill="#FF8833"/>
    </g>
    <defs>
        <clipPath id="clip0_1207_123">
            <rect width="1535" height="747" fill="white"/>
        </clipPath>
    </defs>
</svg>
